<svg width="167" height="44" viewBox="0 0 167 44" fill="none" xmlns="http://www.w3.org/2000/svg">
<path d="M0 22C0 9.84974 9.84974 0 22 0H145C157.15 0 167 9.84974 167 22C167 34.1503 157.15 44 145 44H22C9.84973 44 0 34.1503 0 22Z" fill="#FAFBFC"/>
<path d="M39.6799 11.92H24.3199C22.9951 11.92 21.9199 12.9952 21.9199 14.32V29.68C21.9199 31.0048 22.9951 32.08 24.3199 32.08H39.6799C41.0047 32.08 42.0799 31.0048 42.0799 29.68V14.32C42.0799 12.9952 41.0047 11.92 39.6799 11.92ZM37.7599 19.12H36.7999C35.7727 19.12 35.3599 19.36 35.3599 20.08V21.52H37.7599L37.2799 23.92H35.3599V31.12H32.9599V23.92H31.0399V21.52H32.9599V20.08C32.9599 18.16 33.9199 16.72 35.8399 16.72C37.2319 16.72 37.7599 17.2 37.7599 17.2V19.12Z" fill="#6972B5"/>
<path d="M58.6129 21.07H64.6609V23.41H58.6129V21.07ZM58.8289 28H55.9129V15.4H65.4349V17.74H58.8289V28ZM72.8698 28V26.11L72.6898 25.696V22.312C72.6898 21.712 72.5038 21.244 72.1318 20.908C71.7718 20.572 71.2138 20.404 70.4578 20.404C69.9418 20.404 69.4318 20.488 68.9278 20.656C68.4358 20.812 68.0158 21.028 67.6678 21.304L66.6598 19.342C67.1878 18.97 67.8238 18.682 68.5678 18.478C69.3118 18.274 70.0678 18.172 70.8358 18.172C72.3118 18.172 73.4578 18.52 74.2738 19.216C75.0898 19.912 75.4978 20.998 75.4978 22.474V28H72.8698ZM69.9178 28.144C69.1618 28.144 68.5138 28.018 67.9738 27.766C67.4338 27.502 67.0198 27.148 66.7318 26.704C66.4438 26.26 66.2998 25.762 66.2998 25.21C66.2998 24.634 66.4378 24.13 66.7138 23.698C67.0018 23.266 67.4518 22.93 68.0638 22.69C68.6758 22.438 69.4738 22.312 70.4578 22.312H73.0318V23.95H70.7638C70.1038 23.95 69.6478 24.058 69.3958 24.274C69.1558 24.49 69.0358 24.76 69.0358 25.084C69.0358 25.444 69.1738 25.732 69.4498 25.948C69.7378 26.152 70.1278 26.254 70.6198 26.254C71.0878 26.254 71.5078 26.146 71.8798 25.93C72.2518 25.702 72.5218 25.372 72.6898 24.94L73.1218 26.236C72.9178 26.86 72.5458 27.334 72.0058 27.658C71.4658 27.982 70.7698 28.144 69.9178 28.144ZM82.7895 28.144C81.7455 28.144 80.8155 27.934 79.9995 27.514C79.1835 27.082 78.5415 26.488 78.0735 25.732C77.6175 24.976 77.3895 24.118 77.3895 23.158C77.3895 22.186 77.6175 21.328 78.0735 20.584C78.5415 19.828 79.1835 19.24 79.9995 18.82C80.8155 18.388 81.7455 18.172 82.7895 18.172C83.8095 18.172 84.6975 18.388 85.4535 18.82C86.2095 19.24 86.7675 19.846 87.1275 20.638L84.9495 21.808C84.6975 21.352 84.3795 21.016 83.9955 20.8C83.6235 20.584 83.2155 20.476 82.7715 20.476C82.2915 20.476 81.8595 20.584 81.4755 20.8C81.0915 21.016 80.7855 21.322 80.5575 21.718C80.3415 22.114 80.2335 22.594 80.2335 23.158C80.2335 23.722 80.3415 24.202 80.5575 24.598C80.7855 24.994 81.0915 25.3 81.4755 25.516C81.8595 25.732 82.2915 25.84 82.7715 25.84C83.2155 25.84 83.6235 25.738 83.9955 25.534C84.3795 25.318 84.6975 24.976 84.9495 24.508L87.1275 25.696C86.7675 26.476 86.2095 27.082 85.4535 27.514C84.6975 27.934 83.8095 28.144 82.7895 28.144ZM93.4272 28.144C92.3232 28.144 91.3512 27.928 90.5112 27.496C89.6832 27.064 89.0412 26.476 88.5852 25.732C88.1292 24.976 87.9012 24.118 87.9012 23.158C87.9012 22.186 88.1232 21.328 88.5672 20.584C89.0232 19.828 89.6412 19.24 90.4212 18.82C91.2012 18.388 92.0832 18.172 93.0672 18.172C94.0152 18.172 94.8672 18.376 95.6232 18.784C96.3912 19.18 96.9972 19.756 97.4412 20.512C97.8852 21.256 98.1072 22.15 98.1072 23.194C98.1072 23.302 98.1012 23.428 98.0892 23.572C98.0772 23.704 98.0652 23.83 98.0532 23.95H90.1872V22.312H96.5772L95.4972 22.798C95.4972 22.294 95.3952 21.856 95.1912 21.484C94.9872 21.112 94.7052 20.824 94.3452 20.62C93.9852 20.404 93.5652 20.296 93.0852 20.296C92.6052 20.296 92.1792 20.404 91.8072 20.62C91.4472 20.824 91.1652 21.118 90.9612 21.502C90.7572 21.874 90.6552 22.318 90.6552 22.834V23.266C90.6552 23.794 90.7692 24.262 90.9972 24.67C91.2372 25.066 91.5672 25.372 91.9872 25.588C92.4192 25.792 92.9232 25.894 93.4992 25.894C94.0152 25.894 94.4652 25.816 94.8492 25.66C95.2452 25.504 95.6052 25.27 95.9292 24.958L97.4232 26.578C96.9792 27.082 96.4212 27.472 95.7492 27.748C95.0772 28.012 94.3032 28.144 93.4272 28.144ZM105.701 28.144C104.849 28.144 104.117 27.964 103.505 27.604C102.893 27.244 102.425 26.698 102.101 25.966C101.777 25.222 101.615 24.286 101.615 23.158C101.615 22.018 101.783 21.082 102.119 20.35C102.467 19.618 102.947 19.072 103.559 18.712C104.171 18.352 104.885 18.172 105.701 18.172C106.613 18.172 107.429 18.376 108.149 18.784C108.881 19.192 109.457 19.768 109.877 20.512C110.309 21.256 110.525 22.138 110.525 23.158C110.525 24.166 110.309 25.042 109.877 25.786C109.457 26.53 108.881 27.112 108.149 27.532C107.429 27.94 106.613 28.144 105.701 28.144ZM99.9767 28V14.644H102.785V20.278L102.605 23.14L102.659 26.02V28H99.9767ZM105.215 25.84C105.683 25.84 106.097 25.732 106.457 25.516C106.829 25.3 107.123 24.994 107.339 24.598C107.567 24.19 107.681 23.71 107.681 23.158C107.681 22.594 107.567 22.114 107.339 21.718C107.123 21.322 106.829 21.016 106.457 20.8C106.097 20.584 105.683 20.476 105.215 20.476C104.747 20.476 104.327 20.584 103.955 20.8C103.583 21.016 103.289 21.322 103.073 21.718C102.857 22.114 102.749 22.594 102.749 23.158C102.749 23.71 102.857 24.19 103.073 24.598C103.289 24.994 103.583 25.3 103.955 25.516C104.327 25.732 104.747 25.84 105.215 25.84ZM117.012 28.144C115.98 28.144 115.062 27.928 114.258 27.496C113.466 27.064 112.836 26.476 112.368 25.732C111.912 24.976 111.684 24.118 111.684 23.158C111.684 22.186 111.912 21.328 112.368 20.584C112.836 19.828 113.466 19.24 114.258 18.82C115.062 18.388 115.98 18.172 117.012 18.172C118.032 18.172 118.944 18.388 119.748 18.82C120.552 19.24 121.182 19.822 121.638 20.566C122.094 21.31 122.322 22.174 122.322 23.158C122.322 24.118 122.094 24.976 121.638 25.732C121.182 26.476 120.552 27.064 119.748 27.496C118.944 27.928 118.032 28.144 117.012 28.144ZM117.012 25.84C117.48 25.84 117.9 25.732 118.272 25.516C118.644 25.3 118.938 24.994 119.154 24.598C119.37 24.19 119.478 23.71 119.478 23.158C119.478 22.594 119.37 22.114 119.154 21.718C118.938 21.322 118.644 21.016 118.272 20.8C117.9 20.584 117.48 20.476 117.012 20.476C116.544 20.476 116.124 20.584 115.752 20.8C115.38 21.016 115.08 21.322 114.852 21.718C114.636 22.114 114.528 22.594 114.528 23.158C114.528 23.71 114.636 24.19 114.852 24.598C115.08 24.994 115.38 25.3 115.752 25.516C116.124 25.732 116.544 25.84 117.012 25.84ZM128.807 28.144C127.775 28.144 126.857 27.928 126.053 27.496C125.261 27.064 124.631 26.476 124.163 25.732C123.707 24.976 123.479 24.118 123.479 23.158C123.479 22.186 123.707 21.328 124.163 20.584C124.631 19.828 125.261 19.24 126.053 18.82C126.857 18.388 127.775 18.172 128.807 18.172C129.827 18.172 130.739 18.388 131.543 18.82C132.347 19.24 132.977 19.822 133.433 20.566C133.889 21.31 134.117 22.174 134.117 23.158C134.117 24.118 133.889 24.976 133.433 25.732C132.977 26.476 132.347 27.064 131.543 27.496C130.739 27.928 129.827 28.144 128.807 28.144ZM128.807 25.84C129.275 25.84 129.695 25.732 130.067 25.516C130.439 25.3 130.733 24.994 130.949 24.598C131.165 24.19 131.273 23.71 131.273 23.158C131.273 22.594 131.165 22.114 130.949 21.718C130.733 21.322 130.439 21.016 130.067 20.8C129.695 20.584 129.275 20.476 128.807 20.476C128.339 20.476 127.919 20.584 127.547 20.8C127.175 21.016 126.875 21.322 126.647 21.718C126.431 22.114 126.323 22.594 126.323 23.158C126.323 23.71 126.431 24.19 126.647 24.598C126.875 24.994 127.175 25.3 127.547 25.516C127.919 25.732 128.339 25.84 128.807 25.84ZM138.316 26.02L138.388 22.6L142.906 18.316H146.254L141.916 22.726L140.458 23.914L138.316 26.02ZM135.994 28V14.644H138.802V28H135.994ZM143.212 28L139.936 23.932L141.7 21.754L146.614 28H143.212Z" fill="#6972B5"/>
</svg>
