<svg width="171" height="44" viewBox="0 0 171 44" fill="none" xmlns="http://www.w3.org/2000/svg">
<path d="M0 22C0 9.84974 9.84974 0 22 0H149C161.15 0 171 9.84974 171 22C171 34.1503 161.15 44 149 44H22C9.84973 44 0 34.1503 0 22Z" fill="#FAFBFC"/>
<path d="M27.6799 11.4399C24.2383 11.4399 21.4399 14.2383 21.4399 17.6799V26.3199C21.4399 29.7615 24.2383 32.5599 27.6799 32.5599H36.3199C39.7615 32.5599 42.5599 29.7615 42.5599 26.3199V17.6799C42.5599 14.2383 39.7615 11.4399 36.3199 11.4399H27.6799ZM37.7599 15.2799C38.2879 15.2799 38.7199 15.7119 38.7199 16.2399C38.7199 16.7679 38.2879 17.1999 37.7599 17.1999C37.2319 17.1999 36.7999 16.7679 36.7999 16.2399C36.7999 15.7119 37.2319 15.2799 37.7599 15.2799ZM31.9999 16.7199C34.9135 16.7199 37.2799 19.0863 37.2799 21.9999C37.2799 24.9135 34.9135 27.2799 31.9999 27.2799C29.0863 27.2799 26.7199 24.9135 26.7199 21.9999C26.7199 19.0863 29.0863 16.7199 31.9999 16.7199ZM31.9999 17.6799C29.6191 17.6799 27.6799 19.6191 27.6799 21.9999C27.6799 24.3807 29.6191 26.3199 31.9999 26.3199C34.3807 26.3199 36.3199 24.3807 36.3199 21.9999C36.3199 19.6191 34.3807 17.6799 31.9999 17.6799Z" fill="#6972B5"/>
<path d="M55.7157 28V15.4H58.6317V28H55.7157ZM67.3099 18.172C68.0779 18.172 68.7619 18.328 69.3619 18.64C69.9739 18.94 70.4539 19.408 70.8019 20.044C71.1499 20.668 71.3239 21.472 71.3239 22.456V28H68.5159V22.888C68.5159 22.108 68.3419 21.532 67.9939 21.16C67.6579 20.788 67.1779 20.602 66.5539 20.602C66.1099 20.602 65.7079 20.698 65.3479 20.89C64.9999 21.07 64.7239 21.352 64.5199 21.736C64.3279 22.12 64.2319 22.612 64.2319 23.212V28H61.4239V18.316H64.1059V20.998L63.6019 20.188C63.9499 19.54 64.4479 19.042 65.0959 18.694C65.7439 18.346 66.4819 18.172 67.3099 18.172ZM77.1272 28.144C76.2992 28.144 75.5012 28.048 74.7332 27.856C73.9772 27.652 73.3772 27.4 72.9332 27.1L73.8692 25.084C74.3132 25.36 74.8352 25.588 75.4352 25.768C76.0472 25.936 76.6472 26.02 77.2352 26.02C77.8832 26.02 78.3392 25.942 78.6032 25.786C78.8792 25.63 79.0172 25.414 79.0172 25.138C79.0172 24.91 78.9092 24.742 78.6932 24.634C78.4892 24.514 78.2132 24.424 77.8652 24.364C77.5172 24.304 77.1332 24.244 76.7132 24.184C76.3052 24.124 75.8912 24.046 75.4712 23.95C75.0512 23.842 74.6672 23.686 74.3192 23.482C73.9712 23.278 73.6892 23.002 73.4732 22.654C73.2692 22.306 73.1672 21.856 73.1672 21.304C73.1672 20.692 73.3412 20.152 73.6892 19.684C74.0492 19.216 74.5652 18.85 75.2372 18.586C75.9092 18.31 76.7132 18.172 77.6492 18.172C78.3092 18.172 78.9812 18.244 79.6652 18.388C80.3492 18.532 80.9192 18.742 81.3752 19.018L80.4392 21.016C79.9712 20.74 79.4972 20.554 79.0172 20.458C78.5492 20.35 78.0932 20.296 77.6492 20.296C77.0252 20.296 76.5692 20.38 76.2812 20.548C75.9932 20.716 75.8492 20.932 75.8492 21.196C75.8492 21.436 75.9512 21.616 76.1552 21.736C76.3712 21.856 76.6532 21.952 77.0012 22.024C77.3492 22.096 77.7272 22.162 78.1352 22.222C78.5552 22.27 78.9752 22.348 79.3952 22.456C79.8152 22.564 80.1932 22.72 80.5292 22.924C80.8772 23.116 81.1592 23.386 81.3752 23.734C81.5912 24.07 81.6992 24.514 81.6992 25.066C81.6992 25.666 81.5192 26.2 81.1592 26.668C80.7992 27.124 80.2772 27.484 79.5932 27.748C78.9212 28.012 78.0992 28.144 77.1272 28.144ZM87.3917 28.144C86.2517 28.144 85.3637 27.856 84.7277 27.28C84.0917 26.692 83.7737 25.822 83.7737 24.67V16.174H86.5817V24.634C86.5817 25.042 86.6897 25.36 86.9057 25.588C87.1217 25.804 87.4157 25.912 87.7877 25.912C88.2317 25.912 88.6097 25.792 88.9217 25.552L89.6777 27.532C89.3897 27.736 89.0417 27.892 88.6337 28C88.2377 28.096 87.8237 28.144 87.3917 28.144ZM82.2797 20.692V18.532H88.9937V20.692H82.2797ZM97.194 28V26.11L97.014 25.696V22.312C97.014 21.712 96.828 21.244 96.456 20.908C96.096 20.572 95.538 20.404 94.782 20.404C94.266 20.404 93.756 20.488 93.252 20.656C92.76 20.812 92.34 21.028 91.992 21.304L90.984 19.342C91.512 18.97 92.148 18.682 92.892 18.478C93.636 18.274 94.392 18.172 95.16 18.172C96.636 18.172 97.782 18.52 98.598 19.216C99.414 19.912 99.822 20.998 99.822 22.474V28H97.194ZM94.242 28.144C93.486 28.144 92.838 28.018 92.298 27.766C91.758 27.502 91.344 27.148 91.056 26.704C90.768 26.26 90.624 25.762 90.624 25.21C90.624 24.634 90.762 24.13 91.038 23.698C91.326 23.266 91.776 22.93 92.388 22.69C93 22.438 93.798 22.312 94.782 22.312H97.356V23.95H95.088C94.428 23.95 93.972 24.058 93.72 24.274C93.48 24.49 93.36 24.76 93.36 25.084C93.36 25.444 93.498 25.732 93.774 25.948C94.062 26.152 94.452 26.254 94.944 26.254C95.412 26.254 95.832 26.146 96.204 25.93C96.576 25.702 96.846 25.372 97.014 24.94L97.446 26.236C97.242 26.86 96.87 27.334 96.33 27.658C95.79 27.982 95.094 28.144 94.242 28.144ZM106.988 31.636C106.076 31.636 105.194 31.522 104.342 31.294C103.502 31.078 102.8 30.748 102.236 30.304L103.352 28.288C103.76 28.624 104.276 28.888 104.9 29.08C105.536 29.284 106.16 29.386 106.772 29.386C107.768 29.386 108.488 29.164 108.932 28.72C109.388 28.276 109.616 27.616 109.616 26.74V25.282L109.796 22.852L109.76 20.404V18.316H112.424V26.38C112.424 28.18 111.956 29.506 111.02 30.358C110.084 31.21 108.74 31.636 106.988 31.636ZM106.556 27.532C105.656 27.532 104.84 27.34 104.108 26.956C103.388 26.56 102.806 26.014 102.362 25.318C101.93 24.61 101.714 23.788 101.714 22.852C101.714 21.904 101.93 21.082 102.362 20.386C102.806 19.678 103.388 19.132 104.108 18.748C104.84 18.364 105.656 18.172 106.556 18.172C107.372 18.172 108.092 18.34 108.716 18.676C109.34 19 109.826 19.51 110.174 20.206C110.522 20.89 110.696 21.772 110.696 22.852C110.696 23.92 110.522 24.802 110.174 25.498C109.826 26.182 109.34 26.692 108.716 27.028C108.092 27.364 107.372 27.532 106.556 27.532ZM107.114 25.228C107.606 25.228 108.044 25.132 108.428 24.94C108.812 24.736 109.112 24.454 109.328 24.094C109.544 23.734 109.652 23.32 109.652 22.852C109.652 22.372 109.544 21.958 109.328 21.61C109.112 21.25 108.812 20.974 108.428 20.782C108.044 20.578 107.606 20.476 107.114 20.476C106.622 20.476 106.184 20.578 105.8 20.782C105.416 20.974 105.11 21.25 104.882 21.61C104.666 21.958 104.558 22.372 104.558 22.852C104.558 23.32 104.666 23.734 104.882 24.094C105.11 24.454 105.416 24.736 105.8 24.94C106.184 25.132 106.622 25.228 107.114 25.228ZM115.037 28V18.316H117.719V21.052L117.341 20.26C117.629 19.576 118.091 19.06 118.727 18.712C119.363 18.352 120.137 18.172 121.049 18.172V20.764C120.929 20.752 120.821 20.746 120.725 20.746C120.629 20.734 120.527 20.728 120.419 20.728C119.651 20.728 119.027 20.95 118.547 21.394C118.079 21.826 117.845 22.504 117.845 23.428V28H115.037ZM128.026 28V26.11L127.846 25.696V22.312C127.846 21.712 127.66 21.244 127.288 20.908C126.928 20.572 126.37 20.404 125.614 20.404C125.098 20.404 124.588 20.488 124.084 20.656C123.592 20.812 123.172 21.028 122.824 21.304L121.816 19.342C122.344 18.97 122.98 18.682 123.724 18.478C124.468 18.274 125.224 18.172 125.992 18.172C127.468 18.172 128.614 18.52 129.43 19.216C130.246 19.912 130.654 20.998 130.654 22.474V28H128.026ZM125.074 28.144C124.318 28.144 123.67 28.018 123.13 27.766C122.59 27.502 122.176 27.148 121.888 26.704C121.6 26.26 121.456 25.762 121.456 25.21C121.456 24.634 121.594 24.13 121.87 23.698C122.158 23.266 122.608 22.93 123.22 22.69C123.832 22.438 124.63 22.312 125.614 22.312H128.188V23.95H125.92C125.26 23.95 124.804 24.058 124.552 24.274C124.312 24.49 124.192 24.76 124.192 25.084C124.192 25.444 124.33 25.732 124.606 25.948C124.894 26.152 125.284 26.254 125.776 26.254C126.244 26.254 126.664 26.146 127.036 25.93C127.408 25.702 127.678 25.372 127.846 24.94L128.278 26.236C128.074 26.86 127.702 27.334 127.162 27.658C126.622 27.982 125.926 28.144 125.074 28.144ZM145.597 18.172C146.365 18.172 147.043 18.328 147.631 18.64C148.231 18.94 148.699 19.408 149.035 20.044C149.383 20.668 149.557 21.472 149.557 22.456V28H146.749V22.888C146.749 22.108 146.587 21.532 146.263 21.16C145.939 20.788 145.483 20.602 144.895 20.602C144.487 20.602 144.121 20.698 143.797 20.89C143.473 21.07 143.221 21.346 143.041 21.718C142.861 22.09 142.771 22.564 142.771 23.14V28H139.963V22.888C139.963 22.108 139.801 21.532 139.477 21.16C139.165 20.788 138.715 20.602 138.127 20.602C137.719 20.602 137.353 20.698 137.029 20.89C136.705 21.07 136.453 21.346 136.273 21.718C136.093 22.09 136.003 22.564 136.003 23.14V28H133.195V18.316H135.877V20.962L135.373 20.188C135.709 19.528 136.183 19.03 136.795 18.694C137.419 18.346 138.127 18.172 138.919 18.172C139.807 18.172 140.581 18.4 141.241 18.856C141.913 19.3 142.357 19.984 142.573 20.908L141.583 20.638C141.907 19.882 142.423 19.282 143.131 18.838C143.851 18.394 144.673 18.172 145.597 18.172Z" fill="#6972B5"/>
</svg>
